Coordinates
version=1
nRows=9
nColumns=42
inDegrees=yes

Units are S.I. units (second, meters, Newtons, ...)
If the header above contains a line with 'inDegrees', this indicates whether rotational values are in degrees (yes) or radians (no).

endheader
time	pelvis_tilt	pelvis_list	pelvis_rotation	pelvis_tx	pelvis_ty	pelvis_tz	hip_flexion_r	hip_adduction_r	hip_rotation_r	knee_angle_r	knee_adduction_r	knee_angle_r_beta	ankle_angle_r	subtalar_angle_r	mtp_angle_r	hip_flexion_l	hip_adduction_l	hip_rotation_l	knee_angle_l	knee_adduction_l	knee_angle_l_beta	ankle_angle_l	subtalar_angle_l	mtp_angle_l	lumbar_extension	lumbar_bending	lumbar_rotation	arm_flex_r	arm_add_r	arm_rot_r	elbow_flex_r	pro_sup_r	wrist_flex_r	wrist_dev_r	arm_flex_l	arm_add_l	arm_rot_l	elbow_flex_l	pro_sup_l	wrist_flex_l	wrist_dev_l
      2.91000000	     -2.23024813	      2.24760565	     -7.49548273	      1.54601917	      0.91547630	     -0.07428700	     -4.21180566	     -4.15597680	      1.86174822	      8.95156091	      3.37913887	      0.15623421	     15.77640768	      6.52692523	     -7.50062223	     24.91754806	     -5.14870045	     -4.72292555	     17.42500641	      7.06813705	      0.30412373	     -7.68482197	    -19.44701071	     -7.50062223	     -4.15697974	     -4.32688662	      4.18093292	      0.68622726	    -16.82923632	      5.17274673	     39.66973394	     90.00000001	      0.00000000	      0.00000000	    -15.73832885	     -6.93006319	    -18.36878325	     20.50026240	     90.00000001	      0.00000000	      0.00000000
      2.92000000	     -2.46145455	      1.74881303	     -7.73120239	      1.55624608	      0.91239767	     -0.07457970	     -4.71867734	     -3.77697122	      1.91236120	      8.98022831	      3.42537928	      0.15673455	     16.43541026	      6.79622280	     -7.50061035	     25.28738143	     -5.83377956	     -5.00811526	     14.67135994	      6.63641085	      0.25606354	     -8.17136530	    -19.37567702	     -7.50061035	     -4.05405195	     -3.82017663	      4.49304231	      1.26467569	    -17.19809885	      5.62831073	     39.70625606	     90.00000001	      0.00000000	      0.00000000	    -16.29099785	     -6.75486006	    -18.39857854	     20.45187049	     90.00000001	      0.00000000	      0.00000000
      2.93000000	     -2.72731478	      1.26983431	     -7.92699516	      1.56657027	      0.90926529	     -0.07487757	     -5.20729733	     -3.37091789	      1.78253669	      8.98957944	      3.36182317	      0.15689776	     17.02925396	      7.01368443	     -7.50060170	     25.73615690	     -6.50372018	     -5.62200769	     12.23065099	      6.17994987	      0.21346513	     -8.52325126	    -19.22672167	     -7.50060170	     -3.91629275	     -3.35339755	      4.80735558	      1.76799045	    -17.52123672	      6.05712413	     39.69408665	     90.00000001	      0.00000000	      0.00000000	    -16.78464891	     -6.61014820	    -18.44402792	     20.40912914	     90.00000001	      0.00000000	      0.00000000
      2.94000000	     -2.82299407	      0.87232169	     -8.14559565	      1.57688218	      0.90639728	     -0.07545268	     -5.82094623	     -3.21144190	      1.75448044	      9.10040097	      3.53950918	      0.15883196	     17.72427039	      7.52737802	     -7.50058760	     25.93049500	     -6.98972839	     -6.20354173	      9.88226345	      5.65865903	      0.17247803	     -9.09340159	    -19.14213556	     -7.50058760	     -3.97001406	     -2.96394559	      4.99438759	      2.40581994	    -17.88743840	      6.73846978	     39.67239465	     90.00000001	      0.00000000	      0.00000000	    -17.23018802	     -6.40564367	    -18.59147800	     20.30396627	     90.00000001	      0.00000000	      0.00000000
      2.95000000	     -3.09187094	      0.42591768	     -8.32960446	      1.58724804	      0.90337115	     -0.07587116	     -6.24269035	     -2.84693263	      1.66624319	      9.24148238	      3.49357182	      0.16129430	     18.22875355	      7.74271115	     -7.50057980	     26.39124673	     -7.62948907	     -7.21850713	      8.00840813	      5.31611737	      0.13977309	     -9.32068679	    -18.86163610	     -7.50057980	     -3.83357971	     -2.53591392	      5.24247634	      2.86896071	    -18.12299724	      7.02299326	     39.62524301	     90.00000001	      0.00000000	      0.00000000	    -17.61568580	     -6.27615031	    -18.65577974	     20.21943591	     90.00000001	      0.00000000	      0.00000000
      2.96000000	     -3.30250934	      0.05398817	     -8.55891415	      1.59758575	      0.90051300	     -0.07644439	     -6.69006043	     -2.62480165	      1.69847988	      9.43341310	      3.51986565	      0.16464412	     18.73755787	      7.95171521	     -7.50057301	     26.76960036	     -8.16672484	     -8.34006534	      6.38524187	      5.02345365	      0.11144349	     -9.59738209	    -18.52433008	     -7.50057301	     -3.78299020	     -2.17178696	      5.51992940	      3.33444714	    -18.32653325	      7.31113118	     39.54793878	     90.00000001	      0.00000000	      0.00000000	    -17.93424258	     -6.15495450	    -18.73497707	     20.10775341	     90.00000001	      0.00000000	      0.00000000
      2.97000000	     -3.50819994	     -0.26825562	     -8.80450469	      1.60797449	      0.89779389	     -0.07698747	     -7.10642733	     -2.45306473	      1.76696968	      9.67824663	      3.54865031	      0.16891727	     19.19351635	      8.10330721	     -7.50056656	     27.12906746	     -8.65936221	     -9.59673338	      5.09511882	      4.83195586	      0.08892660	     -9.80904985	    -18.08379171	     -7.50056656	     -3.72437167	     -1.89108141	      5.79130352	      3.75571882	    -18.49262081	      7.53323956	     39.47017207	     90.00000001	      0.00000000	      0.00000000	    -18.17449086	     -6.05169576	    -18.82199192	     19.99977157	     90.00000001	      0.00000000	      0.00000000
      2.98000000	     -3.69964103	     -0.53942344	     -9.05927197	      1.61840313	      0.89523429	     -0.07765060	     -7.49886109	     -2.35545707	      1.94405513	      9.98669898	      3.59401488	      0.17430078	     19.58983188	      8.19565206	     -7.50056080	     27.45079481	     -9.08403525	    -10.87484704	      4.13197856	      4.72488116	      0.07211663	     -9.99153622	    -17.52703692	     -7.50056080	     -3.68733981	     -1.65402224	      6.07004051	      4.12706856	    -18.60404840	      7.67280589	     39.38667797	     90.00000001	      0.00000000	      0.00000000	    -18.34425573	     -5.95126354	    -18.92502244	     19.86743941	     90.00000001	      0.00000000	      0.00000000
      2.99000000	     -3.87836395	     -0.63880172	     -9.52755875	      1.62894546	      0.89284662	     -0.07827927	     -7.82152349	     -2.52867156	      2.47851036	     10.34912298	      3.72621364	      0.18062627	     20.01532838	      8.25680812	     -7.50054242	     27.79482449	     -9.43090190	    -12.80022451	      3.72748195	      4.68818988	      0.06505683	     -9.72253568	    -16.23981696	     -7.50054242	     -3.63047892	     -1.60759446	      6.54765749	      4.43015075	    -18.69294506	      7.73359229	     39.28015703	     90.00000001	      0.00000000	      0.00000000	    -18.37724348	     -5.84513920	    -19.31822631	     19.56088787	     90.00000001	      0.00000000	      0.00000000
